<?xml version="1.0" encoding="UTF-8"?>
<svg width="180" height="48" viewBox="0 0 180 48" fill="none" xmlns="http://www.w3.org/2000/svg">
    <!-- Background Circle -->
    <circle cx="24" cy="24" r="20" fill="#024CAA"/>
    
    <!-- Lightning Bolt Icon -->
    <path d="M24 8L14 26H24L24 40L34 22H24L24 8Z" fill="white"/>
    
    <!-- Text "AllServ" -->
    <path d="M58.6 34L55.4 26.6H52.2V34H48V14H55.8C57.4667 14 58.8667 14.3333 60 15C61.1333 15.6667 61.9333 16.5333 62.4 17.6C62.8667 18.6667 63.1 19.8 63.1 21C63.1 22.4667 62.7333 23.8 62 24.9C61.2667 26 60.1333 26.8 58.6 27.3L62.2 34H58.6ZM52.2 23.4H55.8C56.8667 23.4 57.6667 23.1333 58.2 22.6C58.7333 22.0667 59 21.3333 59 20.4C59 19.4667 58.7333 18.7333 58.2 18.2C57.6667 17.6667 56.8667 17.4 55.8 17.4H52.2V23.4Z" fill="#024CAA"/>
    <path d="M77.5125 34H73.3125L72.7125 31.6H66.7125L66.1125 34H62.1125L67.5125 14H72.1125L77.5125 34ZM67.5125 28.4H71.9125L69.7125 19.8L67.5125 28.4Z" fill="#024CAA"/>
    <path d="M91.825 34H87.625L86.225 29.8H80.225L78.825 34H74.825L82.225 14H84.425L91.825 34ZM81.025 26.6H85.425L83.225 19.8L81.025 26.6Z" fill="#024CAA"/>
    <path d="M105.738 34H93.7375V14H105.738V17.2H97.9375V22.2H104.738V25.4H97.9375V30.8H105.738V34Z" fill="#024CAA"/>
    <path d="M122.05 34H117.85L116.45 29.8H110.45L109.05 34H105.05L112.45 14H114.65L122.05 34ZM111.25 26.6H115.65L113.45 19.8L111.25 26.6Z" fill="#024CAA"/>
    <path d="M133.362 34H121.362V14H125.562V30.8H133.362V34Z" fill="#024CAA"/>
    <path d="M147.675 34H135.675V14H139.875V30.8H147.675V34Z" fill="#024CAA"/>
    
    <!-- Tagline -->
    <text x="58" y="44" font-family="Inter" font-size="10" fill="#6B7280">Your Service Marketplace</text>
</svg>
